<svg xmlns="http://www.w3.org/2000/svg" width="960" height="620">
<rect width="100%" height="100%" fill="white"/>
<text x="70" y="34" font-family="sans-serif" font-size="20">cantilever: weighted CVaR 1%</text>
<line x1="70" y1="550" x2="890" y2="550" stroke="#222"/>
<line x1="70" y1="70" x2="70" y2="550" stroke="#222"/>
<text x="70.0" y="574" text-anchor="middle" font-family="sans-serif" font-size="12">L0</text>
<text x="343.3333333333333" y="574" text-anchor="middle" font-family="sans-serif" font-size="12">L1</text>
<text x="616.6666666666666" y="574" text-anchor="middle" font-family="sans-serif" font-size="12">L2</text>
<text x="890.0" y="574" text-anchor="middle" font-family="sans-serif" font-size="12">L3</text>
<polyline points="70.00,81.22 343.33,70.00 616.67,71.22 890.00,77.48" fill="none" stroke="#006d77" stroke-width="2"/>
<polyline points="70.00,442.07 343.33,445.38 616.67,450.83 890.00,456.56" fill="none" stroke="#006d77" stroke-width="2" stroke-dasharray="6 4"/>
<text x="898" y="70" font-family="sans-serif" font-size="12" fill="#006d77">x</text>
<polyline points="70.00,325.28 343.33,333.18 616.67,349.29 890.00,367.35" fill="none" stroke="#d1495b" stroke-width="2"/>
<polyline points="70.00,472.05 343.33,474.90 616.67,482.07 890.00,485.71" fill="none" stroke="#d1495b" stroke-width="2" stroke-dasharray="6 4"/>
<text x="898" y="90" font-family="sans-serif" font-size="12" fill="#d1495b">y</text>
<polyline points="70.00,325.24 343.33,333.17 616.67,349.28 890.00,368.07" fill="none" stroke="#edae49" stroke-width="2"/>
<polyline points="70.00,472.15 343.33,475.40 616.67,482.02 890.00,485.70" fill="none" stroke="#edae49" stroke-width="2" stroke-dasharray="6 4"/>
<text x="898" y="110" font-family="sans-serif" font-size="12" fill="#edae49">z</text>
<text x="72" y="594" font-family="sans-serif" font-size="11">solid: opening; dashed: shear; each point is the median across remeshes</text>
</svg>
