<svg xmlns="http://www.w3.org/2000/svg" width="960" height="620">
<rect width="100%" height="100%" fill="white"/>
<text x="70" y="34" font-family="sans-serif" font-size="20">clamp: weighted CVaR 1%</text>
<line x1="70" y1="550" x2="890" y2="550" stroke="#222"/>
<line x1="70" y1="70" x2="70" y2="550" stroke="#222"/>
<text x="70.0" y="574" text-anchor="middle" font-family="sans-serif" font-size="12">L0</text>
<text x="343.3333333333333" y="574" text-anchor="middle" font-family="sans-serif" font-size="12">L1</text>
<text x="616.6666666666666" y="574" text-anchor="middle" font-family="sans-serif" font-size="12">L2</text>
<text x="890.0" y="574" text-anchor="middle" font-family="sans-serif" font-size="12">L3</text>
<polyline points="70.00,167.66 343.33,158.39 616.67,162.06 890.00,173.14" fill="none" stroke="#006d77" stroke-width="2"/>
<polyline points="70.00,377.96 343.33,396.89 616.67,388.95 890.00,391.68" fill="none" stroke="#006d77" stroke-width="2" stroke-dasharray="6 4"/>
<text x="898" y="70" font-family="sans-serif" font-size="12" fill="#006d77">x</text>
<polyline points="70.00,453.49 343.33,473.39 616.67,480.12 890.00,486.65" fill="none" stroke="#d1495b" stroke-width="2"/>
<polyline points="70.00,505.07 343.33,509.68 616.67,507.73 890.00,511.77" fill="none" stroke="#d1495b" stroke-width="2" stroke-dasharray="6 4"/>
<text x="898" y="90" font-family="sans-serif" font-size="12" fill="#d1495b">y</text>
<polyline points="70.00,70.00 343.33,72.76 616.67,72.07 890.00,73.19" fill="none" stroke="#edae49" stroke-width="2"/>
<polyline points="70.00,377.96 343.33,396.90 616.67,388.99 890.00,391.34" fill="none" stroke="#edae49" stroke-width="2" stroke-dasharray="6 4"/>
<text x="898" y="110" font-family="sans-serif" font-size="12" fill="#edae49">z</text>
<text x="72" y="594" font-family="sans-serif" font-size="11">solid: opening; dashed: shear; each point is the median across remeshes</text>
</svg>
